<svg xmlns="http://www.w3.org/2000/svg" viewBox="0 0 512 512" width="512" height="512" role="img" aria-label="Minimal eye with spiral iris">
  <title>Eye Spiral Logo</title>

  <defs>
    <clipPath id="eyeClip" clipPathUnits="userSpaceOnUse">
      <path d="M 72 256 Q 256 112 440 256 Q 256 400 72 256 Z"></path>
    </clipPath>
  </defs>

  <g fill="none" stroke="#1a1a1a" stroke-width="8" stroke-linecap="round" stroke-linejoin="round">
    <path d="M 72 256 Q 256 112 440 256 Q 256 400 72 256 Z"></path>

    <g clip-path="url(#eyeClip)">
      <path d="M 312 256 C 311.5 258.4 310.7 265.9 309.1 270.5 C 307.5 275.1 305.3 279.5 302.6 283.5 C 299.9 287.4 296.6 291
         293.1 294.1 C 289.5 297.1 285.4 299.7 281.3 301.7 C 277.1 303.6 272.6 305 268.2 305.8 C 263.7 306.6 259.1
         306.7 254.7 306.3 C 250.3 305.9 245.8 304.8 241.8 303.3 C 237.7 301.7 233.8 299.5 230.3 297 C 226.9 294.5
         223.7 291.5 221.1 288.2 C 218.5 284.9 216.3 281.2 214.7 277.4 C 213.1 273.7 212 269.6 211.5 265.6 C 210.9
         261.7 210.9 257.5 211.5 253.6 C 212 249.7 213.1 245.8 214.5 242.3 C 216 238.7 218.1 235.3 220.4 232.4 C 222.7
         229.4 225.5 226.8 228.5 224.6 C 231.5 222.4 234.8 220.6 238.2 219.3 C 241.5 218 245.1 217.2 248.6 216.8 C
         252.1 216.5 255.7 216.6 259.1 217.2 C 262.5 217.8 265.9 218.9 268.9 220.3 C 271.9 221.7 274.8 223.6 277.3
         225.7 C 279.8 227.8 282 230.4 283.8 233 C 285.6 235.6 287 238.6 288 241.5 C 289 244.4 289.6 247.6 289.7 250.6
         C 289.9 253.6 289.6 256.7 289 259.5 C 288.4 262.4 287.4 265.2 286.1 267.8 C 284.7 270.3 283 272.7 281.1 274.7
         C 279.3 276.7 277 278.5 274.8 279.9 C 272.5 281.3 269.9 282.4 267.4 283.1 C 264.9 283.8 262.3 284.2 259.8
         284.2 C 257.3 284.3 254.7 283.9 252.3 283.3 C 250 282.7 247.7 281.7 245.7 280.5 C 243.6 279.3 241.8 277.8
         240.2 276.2 C 238.6 274.5 237.2 272.6 236.2 270.7 C 235.1 268.8 234.4 266.7 233.9 264.6 C 233.4 262.6 233.3
         260.4 233.3 258.4 C 233.4 256.4 233.8 254.4 234.4 252.5 C 235.1 250.7 236 248.9 237 247.4 C 238 245.8 239.3
         244.4 240.7 243.3 C 242 242.1 243.6 241.2 245.1 240.5 C 246.6 239.8 248.3 239.3 249.9 239 C 251.5 238.8 253.1
         238.8 254.6 239 C 256.2 239.2 257.7 239.6 259 240.1 C 260.3 240.7 261.6 241.5 262.6 242.3 C 263.7 243.2 264.6
         244.2 265.4 245.3 C 266.1 246.3 266.7 247.5 267.1 248.7 C 267.5 249.8 267.7 251 267.7 252.1 C 267.8 253.2
         267.6 254.4 267.4 255.4 C 267.1 256.4 266.7 257.4 266.2 258.2 C 265.7 259 265.1 259.8 264.4 260.4 C 263.8 261
         263 261.5 262.3 261.8 C 261.5 262.1 260.8 262.3 260 262.4 C 259.3 262.5 258.6 262.5 257.9 262.4 C 257.3 262.2
         256.7 262 256.2 261.7 C 255.6 261.4 255.2 261 254.9 260.6 C 254.5 260.2 254.3 259.7 254.2 259.3 C 254 258.9
         254 258.4 254 258 C 254 257.6 254.2 257.3 254.4 257 C 254.5 256.7 254.8 256.4 255.1 256.2 C 255.4 256.1 255.8
         256 256 256"></path>
    </g>
  </g>
</svg>
